<mxfile host="65bd71144e">
    <diagram id="n9uMMdS0sM0NDuDs2vdY" name="Page-1">
        <mxGraphModel dx="546" dy="659" grid="1" gridSize="10" guides="1" tooltips="1" connect="1" arrows="1" fold="1" page="1" pageScale="1" pageWidth="827" pageHeight="1169" math="0" shadow="0">
            <root>
                <mxCell id="0"/>
                <mxCell id="1" parent="0"/>
                <mxCell id="bvI0IArzNIrlb63RfcCq-6" value="&lt;div&gt;emits:&lt;/div&gt;&lt;div&gt;started&lt;/div&gt;&lt;div&gt;played&lt;/div&gt;&lt;div&gt;ended&lt;br&gt;&lt;/div&gt;" style="text;html=1;strokeColor=none;fillColor=none;align=center;verticalAlign=middle;whiteSpace=wrap;rounded=0;" parent="1" vertex="1">
                    <mxGeometry x="480" y="230" width="60" height="30" as="geometry"/>
                </mxCell>
                <mxCell id="bvI0IArzNIrlb63RfcCq-9" value="Game" style="swimlane;fontStyle=1;align=center;verticalAlign=top;childLayout=stackLayout;horizontal=1;startSize=26;horizontalStack=0;resizeParent=1;resizeParentMax=0;resizeLast=0;collapsible=1;marginBottom=0;" parent="1" vertex="1">
                    <mxGeometry x="330" y="250" width="160" height="186" as="geometry"/>
                </mxCell>
                <mxCell id="bvI0IArzNIrlb63RfcCq-10" value="id&#10;hexesplayers&#10;currentPlayer&#10;started&#10;winner" style="text;strokeColor=none;fillColor=none;align=left;verticalAlign=top;spacingLeft=4;spacingRight=4;overflow=hidden;rotatable=0;points=[[0,0.5],[1,0.5]];portConstraint=eastwest;" parent="bvI0IArzNIrlb63RfcCq-9" vertex="1">
                    <mxGeometry y="26" width="160" height="94" as="geometry"/>
                </mxCell>
                <mxCell id="bvI0IArzNIrlb63RfcCq-11" value="" style="line;strokeWidth=1;fillColor=none;align=left;verticalAlign=middle;spacingTop=-1;spacingLeft=3;spacingRight=3;rotatable=0;labelPosition=right;points=[];portConstraint=eastwest;strokeColor=inherit;" parent="bvI0IArzNIrlb63RfcCq-9" vertex="1">
                    <mxGeometry y="120" width="160" height="8" as="geometry"/>
                </mxCell>
                <mxCell id="bvI0IArzNIrlb63RfcCq-12" value="start()&#10;&#10;play(move)" style="text;strokeColor=none;fillColor=none;align=left;verticalAlign=top;spacingLeft=4;spacingRight=4;overflow=hidden;rotatable=0;points=[[0,0.5],[1,0.5]];portConstraint=eastwest;" parent="bvI0IArzNIrlb63RfcCq-9" vertex="1">
                    <mxGeometry y="128" width="160" height="58" as="geometry"/>
                </mxCell>
                <mxCell id="bvI0IArzNIrlb63RfcCq-13" value="PlayerInterface" style="swimlane;fontStyle=0;childLayout=stackLayout;horizontal=1;startSize=26;fillColor=none;horizontalStack=0;resizeParent=1;resizeParentMax=0;resizeLast=0;collapsible=1;marginBottom=0;" parent="1" vertex="1">
                    <mxGeometry x="30" y="150" width="230" height="120" as="geometry"/>
                </mxCell>
                <mxCell id="bvI0IArzNIrlb63RfcCq-14" value="playMove(gameInput): Promise&lt;Move&gt;&#10;isReady(): boolgetPseudo(): string&#10;getAvatar()&#10;getElo(): number&#10;&#10;" style="text;strokeColor=none;fillColor=none;align=left;verticalAlign=top;spacingLeft=4;spacingRight=4;overflow=hidden;rotatable=0;points=[[0,0.5],[1,0.5]];portConstraint=eastwest;" parent="bvI0IArzNIrlb63RfcCq-13" vertex="1">
                    <mxGeometry y="26" width="230" height="94" as="geometry"/>
                </mxCell>
                <mxCell id="bvI0IArzNIrlb63RfcCq-17" value="GameLoop" style="swimlane;fontStyle=1;align=center;verticalAlign=top;childLayout=stackLayout;horizontal=1;startSize=26;horizontalStack=0;resizeParent=1;resizeParentMax=0;resizeLast=0;collapsible=1;marginBottom=0;" parent="1" vertex="1">
                    <mxGeometry x="90" y="342" width="160" height="86" as="geometry"/>
                </mxCell>
                <mxCell id="bvI0IArzNIrlb63RfcCq-18" value="game" style="text;strokeColor=none;fillColor=none;align=left;verticalAlign=top;spacingLeft=4;spacingRight=4;overflow=hidden;rotatable=0;points=[[0,0.5],[1,0.5]];portConstraint=eastwest;" parent="bvI0IArzNIrlb63RfcCq-17" vertex="1">
                    <mxGeometry y="26" width="160" height="26" as="geometry"/>
                </mxCell>
                <mxCell id="bvI0IArzNIrlb63RfcCq-19" value="" style="line;strokeWidth=1;fillColor=none;align=left;verticalAlign=middle;spacingTop=-1;spacingLeft=3;spacingRight=3;rotatable=0;labelPosition=right;points=[];portConstraint=eastwest;strokeColor=inherit;" parent="bvI0IArzNIrlb63RfcCq-17" vertex="1">
                    <mxGeometry y="52" width="160" height="8" as="geometry"/>
                </mxCell>
                <mxCell id="bvI0IArzNIrlb63RfcCq-20" value="run() (start game if not, players turn)" style="text;strokeColor=none;fillColor=none;align=left;verticalAlign=top;spacingLeft=4;spacingRight=4;overflow=hidden;rotatable=0;points=[[0,0.5],[1,0.5]];portConstraint=eastwest;" parent="bvI0IArzNIrlb63RfcCq-17" vertex="1">
                    <mxGeometry y="60" width="160" height="26" as="geometry"/>
                </mxCell>
                <mxCell id="bvI0IArzNIrlb63RfcCq-25" style="edgeStyle=orthogonalEdgeStyle;rounded=0;orthogonalLoop=1;jettySize=auto;html=1;entryX=0.625;entryY=0.988;entryDx=0;entryDy=0;entryPerimeter=0;" parent="1" source="bvI0IArzNIrlb63RfcCq-21" target="bvI0IArzNIrlb63RfcCq-12" edge="1">
                    <mxGeometry relative="1" as="geometry"/>
                </mxCell>
                <mxCell id="bvI0IArzNIrlb63RfcCq-21" value="GameServerSocket" style="swimlane;fontStyle=1;align=center;verticalAlign=top;childLayout=stackLayout;horizontal=1;startSize=30;horizontalStack=0;resizeParent=1;resizeParentMax=0;resizeLast=0;collapsible=1;marginBottom=0;" parent="1" vertex="1">
                    <mxGeometry x="350" y="540" width="160" height="122" as="geometry"/>
                </mxCell>
                <mxCell id="bvI0IArzNIrlb63RfcCq-22" value="game&#10;io&#10;player0Socket&#10;player1Socket&#10;" style="text;strokeColor=none;fillColor=none;align=left;verticalAlign=top;spacingLeft=4;spacingRight=4;overflow=hidden;rotatable=0;points=[[0,0.5],[1,0.5]];portConstraint=eastwest;" parent="bvI0IArzNIrlb63RfcCq-21" vertex="1">
                    <mxGeometry y="30" width="160" height="84" as="geometry"/>
                </mxCell>
                <mxCell id="bvI0IArzNIrlb63RfcCq-23" value="" style="line;strokeWidth=1;fillColor=none;align=left;verticalAlign=middle;spacingTop=-1;spacingLeft=3;spacingRight=3;rotatable=0;labelPosition=right;points=[];portConstraint=eastwest;strokeColor=inherit;" parent="bvI0IArzNIrlb63RfcCq-21" vertex="1">
                    <mxGeometry y="114" width="160" height="8" as="geometry"/>
                </mxCell>
                <mxCell id="bvI0IArzNIrlb63RfcCq-32" style="edgeStyle=orthogonalEdgeStyle;rounded=0;orthogonalLoop=1;jettySize=auto;html=1;entryX=0.5;entryY=0;entryDx=0;entryDy=0;exitX=0.444;exitY=1;exitDx=0;exitDy=0;exitPerimeter=0;" parent="1" source="bvI0IArzNIrlb63RfcCq-36" target="bvI0IArzNIrlb63RfcCq-31" edge="1">
                    <mxGeometry relative="1" as="geometry">
                        <mxPoint x="280" y="920" as="sourcePoint"/>
                    </mxGeometry>
                </mxCell>
                <mxCell id="bvI0IArzNIrlb63RfcCq-30" style="edgeStyle=orthogonalEdgeStyle;rounded=0;orthogonalLoop=1;jettySize=auto;html=1;entryX=1;entryY=0.5;entryDx=0;entryDy=0;" parent="1" target="bvI0IArzNIrlb63RfcCq-22" edge="1">
                    <mxGeometry relative="1" as="geometry">
                        <mxPoint x="570" y="780" as="sourcePoint"/>
                    </mxGeometry>
                </mxCell>
                <mxCell id="bvI0IArzNIrlb63RfcCq-31" value="&lt;div&gt;Game&lt;/div&gt;&lt;div&gt;players: RemotePlayer&lt;br&gt;&lt;/div&gt;" style="rounded=0;whiteSpace=wrap;html=1;" parent="1" vertex="1">
                    <mxGeometry x="230" y="1020" width="150" height="60" as="geometry"/>
                </mxCell>
                <mxCell id="bvI0IArzNIrlb63RfcCq-33" value="GameClientSocket" style="swimlane;fontStyle=1;align=center;verticalAlign=top;childLayout=stackLayout;horizontal=1;startSize=26;horizontalStack=0;resizeParent=1;resizeParentMax=0;resizeLast=0;collapsible=1;marginBottom=0;" parent="1" vertex="1">
                    <mxGeometry x="210" y="820" width="160" height="104" as="geometry"/>
                </mxCell>
                <mxCell id="bvI0IArzNIrlb63RfcCq-34" value="game&#10;socket&#10;" style="text;strokeColor=none;fillColor=none;align=left;verticalAlign=top;spacingLeft=4;spacingRight=4;overflow=hidden;rotatable=0;points=[[0,0.5],[1,0.5]];portConstraint=eastwest;" parent="bvI0IArzNIrlb63RfcCq-33" vertex="1">
                    <mxGeometry y="26" width="160" height="44" as="geometry"/>
                </mxCell>
                <mxCell id="bvI0IArzNIrlb63RfcCq-35" value="" style="line;strokeWidth=1;fillColor=none;align=left;verticalAlign=middle;spacingTop=-1;spacingLeft=3;spacingRight=3;rotatable=0;labelPosition=right;points=[];portConstraint=eastwest;strokeColor=inherit;" parent="bvI0IArzNIrlb63RfcCq-33" vertex="1">
                    <mxGeometry y="70" width="160" height="8" as="geometry"/>
                </mxCell>
                <mxCell id="bvI0IArzNIrlb63RfcCq-36" value="+ method(type): type" style="text;strokeColor=none;fillColor=none;align=left;verticalAlign=top;spacingLeft=4;spacingRight=4;overflow=hidden;rotatable=0;points=[[0,0.5],[1,0.5]];portConstraint=eastwest;" parent="bvI0IArzNIrlb63RfcCq-33" vertex="1">
                    <mxGeometry y="78" width="160" height="26" as="geometry"/>
                </mxCell>
                <mxCell id="bvI0IArzNIrlb63RfcCq-42" style="edgeStyle=orthogonalEdgeStyle;rounded=0;orthogonalLoop=1;jettySize=auto;html=1;" parent="1" source="bvI0IArzNIrlb63RfcCq-18" target="bvI0IArzNIrlb63RfcCq-12" edge="1">
                    <mxGeometry relative="1" as="geometry"/>
                </mxCell>
                <mxCell id="bvI0IArzNIrlb63RfcCq-47" style="edgeStyle=orthogonalEdgeStyle;rounded=0;orthogonalLoop=1;jettySize=auto;html=1;entryX=0.358;entryY=1.017;entryDx=0;entryDy=0;entryPerimeter=0;" parent="1" source="bvI0IArzNIrlb63RfcCq-43" target="bvI0IArzNIrlb63RfcCq-31" edge="1">
                    <mxGeometry relative="1" as="geometry"/>
                </mxCell>
                <mxCell id="bvI0IArzNIrlb63RfcCq-43" value="GameView" style="swimlane;fontStyle=1;align=center;verticalAlign=top;childLayout=stackLayout;horizontal=1;startSize=26;horizontalStack=0;resizeParent=1;resizeParentMax=0;resizeLast=0;collapsible=1;marginBottom=0;" parent="1" vertex="1">
                    <mxGeometry x="170" y="1140" width="160" height="210" as="geometry"/>
                </mxCell>
                <mxCell id="bvI0IArzNIrlb63RfcCq-44" value="game&#10;pixiBoard&#10;" style="text;strokeColor=none;fillColor=none;align=left;verticalAlign=top;spacingLeft=4;spacingRight=4;overflow=hidden;rotatable=0;points=[[0,0.5],[1,0.5]];portConstraint=eastwest;" parent="bvI0IArzNIrlb63RfcCq-43" vertex="1">
                    <mxGeometry y="26" width="160" height="54" as="geometry"/>
                </mxCell>
                <mxCell id="bvI0IArzNIrlb63RfcCq-45" value="" style="line;strokeWidth=1;fillColor=none;align=left;verticalAlign=middle;spacingTop=-1;spacingLeft=3;spacingRight=3;rotatable=0;labelPosition=right;points=[];portConstraint=eastwest;strokeColor=inherit;" parent="bvI0IArzNIrlb63RfcCq-43" vertex="1">
                    <mxGeometry y="80" width="160" height="70" as="geometry"/>
                </mxCell>
                <mxCell id="bvI0IArzNIrlb63RfcCq-56" value="&lt;div&gt;si au moins un local player,&lt;/div&gt;&lt;div&gt;listen click on view,&lt;/div&gt;&lt;div&gt;then control game&lt;br&gt;&lt;/div&gt;" style="text;html=1;align=center;verticalAlign=middle;resizable=0;points=[];autosize=1;strokeColor=none;fillColor=none;" parent="bvI0IArzNIrlb63RfcCq-43" vertex="1">
                    <mxGeometry y="150" width="160" height="60" as="geometry"/>
                </mxCell>
                <mxCell id="bvI0IArzNIrlb63RfcCq-48" value="" style="endArrow=none;dashed=1;html=1;dashPattern=1 3;strokeWidth=2;rounded=0;" parent="1" edge="1">
                    <mxGeometry width="50" height="50" relative="1" as="geometry">
                        <mxPoint x="55" y="670" as="sourcePoint"/>
                        <mxPoint x="805" y="670" as="targetPoint"/>
                    </mxGeometry>
                </mxCell>
                <mxCell id="bvI0IArzNIrlb63RfcCq-51" style="edgeStyle=orthogonalEdgeStyle;rounded=0;orthogonalLoop=1;jettySize=auto;html=1;" parent="1" source="bvI0IArzNIrlb63RfcCq-49" edge="1">
                    <mxGeometry relative="1" as="geometry">
                        <mxPoint x="700" y="810" as="targetPoint"/>
                    </mxGeometry>
                </mxCell>
                <mxCell id="bvI0IArzNIrlb63RfcCq-49" value="&lt;div&gt;server-&amp;gt;client messages:&lt;/div&gt;&lt;div&gt;game:ID:started&lt;/div&gt;&lt;div&gt;game:ID:moved&lt;/div&gt;&lt;div&gt;game:ID:ended&lt;br&gt;&lt;/div&gt;&lt;div&gt;game:ID:joined&lt;/div&gt;" style="text;html=1;align=center;verticalAlign=middle;resizable=0;points=[];autosize=1;strokeColor=none;fillColor=none;" parent="1" vertex="1">
                    <mxGeometry x="745" y="685" width="150" height="80" as="geometry"/>
                </mxCell>
                <mxCell id="bvI0IArzNIrlb63RfcCq-54" style="edgeStyle=orthogonalEdgeStyle;rounded=0;orthogonalLoop=1;jettySize=auto;html=1;entryX=0.5;entryY=1;entryDx=0;entryDy=0;" parent="1" source="bvI0IArzNIrlb63RfcCq-52" target="2" edge="1">
                    <mxGeometry relative="1" as="geometry">
                        <mxPoint x="660" y="550" as="targetPoint"/>
                    </mxGeometry>
                </mxCell>
                <mxCell id="bvI0IArzNIrlb63RfcCq-52" value="&lt;div&gt;client-&amp;gt;server messages:&lt;/div&gt;&lt;div&gt;move&lt;/div&gt;&lt;div&gt;watch&lt;/div&gt;&lt;div&gt;join&lt;/div&gt;&lt;div&gt;unwatch&lt;/div&gt;&lt;div&gt;leave/abandon&lt;br&gt;&lt;/div&gt;" style="text;html=1;align=center;verticalAlign=middle;resizable=0;points=[];autosize=1;strokeColor=none;fillColor=none;" parent="1" vertex="1">
                    <mxGeometry x="555" y="643" width="150" height="90" as="geometry"/>
                </mxCell>
                <mxCell id="bvI0IArzNIrlb63RfcCq-55" value="&lt;div align=&quot;left&quot;&gt;&lt;ul&gt;&lt;li&gt;AsyncPlayer (isControllable(): bool)&lt;br&gt;&lt;/li&gt;&lt;ul&gt;&lt;li&gt;RemotePlayer (front, not listen moves)&lt;br&gt;&lt;/li&gt;&lt;li&gt;LocalPlayer (front, accept moves)&lt;/li&gt;&lt;li&gt;ServerPlayer (back, io, socket can join slot, then ready)&lt;br&gt;&lt;/li&gt;&lt;/ul&gt;&lt;li&gt;&lt;div&gt;AIPlayer&lt;/div&gt;&lt;/li&gt;&lt;li&gt;RemoteAIPlayer (server, exec cmd)&lt;br&gt;&lt;/li&gt;&lt;/ul&gt;&lt;/div&gt;&lt;div align=&quot;left&quot;&gt;&lt;br&gt;&lt;/div&gt;" style="text;html=1;align=left;verticalAlign=middle;resizable=0;points=[];autosize=1;strokeColor=none;fillColor=none;" parent="1" vertex="1">
                    <mxGeometry x="20" y="10" width="400" height="150" as="geometry"/>
                </mxCell>
                <mxCell id="2" value="HexServer" style="swimlane;fontStyle=1;align=center;verticalAlign=top;childLayout=stackLayout;horizontal=1;startSize=30;horizontalStack=0;resizeParent=1;resizeParentMax=0;resizeLast=0;collapsible=1;marginBottom=0;" parent="1" vertex="1">
                    <mxGeometry x="600" y="400" width="160" height="210" as="geometry"/>
                </mxCell>
                <mxCell id="3" value="gameServerSockets&#10;" style="text;strokeColor=none;fillColor=none;align=left;verticalAlign=top;spacingLeft=4;spacingRight=4;overflow=hidden;rotatable=0;points=[[0,0.5],[1,0.5]];portConstraint=eastwest;" parent="2" vertex="1">
                    <mxGeometry y="30" width="160" height="84" as="geometry"/>
                </mxCell>
                <mxCell id="4" value="" style="line;strokeWidth=1;fillColor=none;align=left;verticalAlign=middle;spacingTop=-1;spacingLeft=3;spacingRight=3;rotatable=0;labelPosition=right;points=[];portConstraint=eastwest;strokeColor=inherit;" parent="2" vertex="1">
                    <mxGeometry y="114" width="160" height="76" as="geometry"/>
                </mxCell>
                <mxCell id="15" value="createGame()" style="text;html=1;align=center;verticalAlign=middle;resizable=0;points=[];autosize=1;strokeColor=none;fillColor=none;" parent="2" vertex="1">
                    <mxGeometry y="190" width="160" height="20" as="geometry"/>
                </mxCell>
                <mxCell id="5" style="edgeStyle=none;html=1;" parent="1" source="3" target="bvI0IArzNIrlb63RfcCq-21" edge="1">
                    <mxGeometry relative="1" as="geometry"/>
                </mxCell>
                <mxCell id="7" value="HexClient" style="swimlane;fontStyle=1;align=center;verticalAlign=top;childLayout=stackLayout;horizontal=1;startSize=30;horizontalStack=0;resizeParent=1;resizeParentMax=0;resizeLast=0;collapsible=1;marginBottom=0;" parent="1" vertex="1">
                    <mxGeometry x="545" y="811" width="160" height="122" as="geometry"/>
                </mxCell>
                <mxCell id="8" value="gameClientSockets&#10;" style="text;strokeColor=none;fillColor=none;align=left;verticalAlign=top;spacingLeft=4;spacingRight=4;overflow=hidden;rotatable=0;points=[[0,0.5],[1,0.5]];portConstraint=eastwest;" parent="7" vertex="1">
                    <mxGeometry y="30" width="160" height="84" as="geometry"/>
                </mxCell>
                <mxCell id="9" value="" style="line;strokeWidth=1;fillColor=none;align=left;verticalAlign=middle;spacingTop=-1;spacingLeft=3;spacingRight=3;rotatable=0;labelPosition=right;points=[];portConstraint=eastwest;strokeColor=inherit;" parent="7" vertex="1">
                    <mxGeometry y="114" width="160" height="8" as="geometry"/>
                </mxCell>
                <mxCell id="14" value="&lt;div&gt;emits:&lt;/div&gt;&lt;div&gt;gameCreated&lt;/div&gt;&lt;div&gt;gameJoined&lt;/div&gt;" style="text;html=1;strokeColor=none;fillColor=none;align=center;verticalAlign=middle;whiteSpace=wrap;rounded=0;" parent="1" vertex="1">
                    <mxGeometry x="760" y="360" width="60" height="30" as="geometry"/>
                </mxCell>
            </root>
        </mxGraphModel>
    </diagram>
</mxfile>
